<svg id="Layer_1" data-name="Layer 1" xmlns="http://www.w3.org/2000/svg" xmlns:xlink="http://www.w3.org/1999/xlink" width="171.77" height="32.04" viewBox="0 0 171.77 32.04"><defs><style>.cls-1{fill:url(#linear-gradient);}.cls-2{fill:#05f;}.cls-3{fill:#09f;}</style><linearGradient id="linear-gradient" x1="12.01" y1="30.01" x2="38.95" y2="30.01" gradientUnits="userSpaceOnUse"><stop offset="0" stop-color="#09f"/><stop offset="0.22" stop-color="#0091ff"/><stop offset="0.54" stop-color="#007dff"/><stop offset="0.94" stop-color="#005bff"/><stop offset="1" stop-color="#05f"/></linearGradient></defs><title>logo</title><path class="cls-1" d="M39,46c-3.43,0-6.76.13-10.08,0A6.12,6.12,0,0,1,23.3,42c-3.79-9.15-7.48-18.34-11.21-27.52a2.69,2.69,0,0,1-.08-.47c3.49,0,6.93-.16,10.35,0a6.07,6.07,0,0,1,5.37,4c3.76,9.12,7.45,18.27,11.16,27.42A2.3,2.3,0,0,1,39,46Z" transform="translate(-4.11 -13.98)"/><path class="cls-2" d="M59.89,46c-3.46,0-6.83.14-10.18,0a6,6,0,0,1-5.42-3.76C40.48,33,36.78,23.76,33,14.55a3.94,3.94,0,0,1-.1-.56c2.25,0,4.42,0,6.6,0a27.55,27.55,0,0,1,4.17.19,6.22,6.22,0,0,1,4.95,3.91c3.75,9.12,7.44,18.27,11.15,27.41A2.67,2.67,0,0,1,59.89,46Z" transform="translate(-4.11 -13.98)"/><path class="cls-3" d="M19,45.94c-3.37,0-6.55.16-9.7,0a5.85,5.85,0,0,1-5.21-5.44A6.06,6.06,0,0,1,8.3,34.14a5.77,5.77,0,0,1,7,2.67C16.75,39.72,17.79,42.8,19,45.94Z" transform="translate(-4.11 -13.98)"/><path d="M76.43,35.8v-.88c1.29-.16,1.48-.27,1.48-2V28.17c0-2.18-.93-2.88-2.08-2.88a3.81,3.81,0,0,0-2.4,1.06c0,.33.06.71.06,1.17V33c0,1.61.15,1.75,1.5,1.91v.88h-6.1v-.88c1.39-.16,1.55-.25,1.55-1.93V28.07c0-2-.73-2.8-2-2.8a4.12,4.12,0,0,0-2.44,1V33c0,1.64.18,1.77,1.39,1.93v.88H61.23v-.88c1.62-.18,1.73-.29,1.73-2v-5.8c0-1.62-.05-1.82-1.43-2v-.82A23.25,23.25,0,0,0,66,23.2v2.12c.6-.42,1.12-.82,1.81-1.24a4.18,4.18,0,0,1,2.28-.8,3.17,3.17,0,0,1,3.06,2.15c.7-.53,1.31-.95,2-1.42a4.27,4.27,0,0,1,2.2-.73c2.31,0,3.6,1.6,3.6,4.37V33c0,1.63.15,1.73,1.58,1.93v.88Z" transform="translate(-4.11 -13.98)"/><path d="M96,24.48c-1.36.2-1.64.46-2.33,2s-1.46,3.47-3.16,7.64a82.59,82.59,0,0,0-2.86,7.75c-.18.6-.5.77-.93.77a1.92,1.92,0,0,1-2-1.61c0-.41.17-.64.69-1a5.75,5.75,0,0,0,2.15-2,14.78,14.78,0,0,0,.85-1.88,1.49,1.49,0,0,0-.09-1.07c-1.31-3.68-3-7.33-3.59-8.77-.54-1.29-.84-1.62-2.23-1.81v-.87H89v.87c-1.21.19-1.39.41-1.07,1.33L90.24,32c.66-1.65,1.69-4.37,2.22-6,.3-.94,0-1.28-1.46-1.5v-.87h5Z" transform="translate(-4.11 -13.98)"/><path d="M111.33,35.8v-.93c2.16-.22,2.28-.4,2.27-3V20.89c-2.08,4.85-4.77,11-6.4,14.91h-.85c-1.49-3.8-3.85-9.78-5.88-14.67-.39,9-.4,10.88-.4,11.71,0,1.51.63,1.84,2.63,2v.93H96v-.93c1.58-.15,2.28-.46,2.5-2.06.13-1,.21-2.33.88-11.77.09-1.36-.13-2-2.52-2.23v-.93h5.55L108,30.68l5.76-12.8h5.47v.93c-2.26.24-2.53.47-2.47,2.58l.18,10.43c.06,2.65.16,2.77,2.46,3v.93Z" transform="translate(-4.11 -13.98)"/><path d="M127,23.28a6.05,6.05,0,0,1,6.22,6.21,6.35,6.35,0,1,1-12.69.35A6.44,6.44,0,0,1,127,23.28Zm-.33,1c-1.36,0-2.65,1.38-2.65,4.7s1.28,6,3.2,6c1.28,0,2.51-.9,2.51-4.84C129.73,26.6,128.63,24.32,126.67,24.32Z" transform="translate(-4.11 -13.98)"/><path d="M142.87,35.8v-.88c1.31-.16,1.42-.3,1.42-2.19V28.07c0-1.95-.87-2.8-2.13-2.8a3.89,3.89,0,0,0-2.42,1v6.6c0,1.76.13,1.85,1.43,2v.88h-6.24v-.88c1.57-.22,1.74-.28,1.74-2.08V27.12c0-1.7-.21-1.79-1.52-2v-.83a24,24,0,0,0,4.63-1.06c0,.47,0,1.4,0,2.05.55-.39,1.14-.8,1.81-1.22a3.93,3.93,0,0,1,2.19-.75c2.23,0,3.62,1.62,3.62,4.39v5.22c0,1.77.17,1.85,1.59,2v.88Z" transform="translate(-4.11 -13.98)"/><path d="M161.17,33.23a6.28,6.28,0,0,1-4.88,2.9c-3.58,0-5.66-2.74-5.66-6a7.18,7.18,0,0,1,2-4.91,6,6,0,0,1,4.23-2,4.43,4.43,0,0,1,4.43,4.41c0,.5-.05.89-.42,1-.54.12-4.3.34-7.19.45.05,3.19,1.9,4.69,3.87,4.69a4.72,4.72,0,0,0,3.16-1.3Zm-4.92-8.85c-1.16,0-2.21,1.26-2.45,3.45,1.28,0,2.5,0,3.82-.08.43,0,.59-.1.59-.55C158.24,25.79,157.49,24.38,156.25,24.38Z" transform="translate(-4.11 -13.98)"/><path d="M175.89,24.48c-1.36.2-1.65.46-2.34,2s-1.45,3.47-3.16,7.64a81.34,81.34,0,0,0-2.85,7.75c-.19.6-.51.77-.94.77a1.92,1.92,0,0,1-2-1.61c0-.41.17-.64.69-1a5.78,5.78,0,0,0,2.16-2,15.94,15.94,0,0,0,.84-1.88,1.49,1.49,0,0,0-.09-1.07c-1.31-3.68-3-7.33-3.59-8.77-.53-1.29-.84-1.62-2.23-1.81v-.87h6.43v.87c-1.21.19-1.39.41-1.06,1.33L170.08,32c.66-1.65,1.7-4.37,2.22-6,.3-.94,0-1.28-1.46-1.5v-.87h5Z" transform="translate(-4.11 -13.98)"/></svg>